<?xml version="1.0" encoding="UTF-8"?>
<!DOCTYPE svg PUBLIC "-//W3C//DTD SVG 1.1//EN" "http://www.w3.org/Graphics/SVG/1.1/DTD/svg11.dtd">
<svg xmlns="http://www.w3.org/2000/svg" version="1.1" width="512px" height="512px" style="shape-rendering:geometricPrecision; text-rendering:geometricPrecision; image-rendering:optimizeQuality; fill-rule:evenodd; clip-rule:evenodd" xmlns:xlink="http://www.w3.org/1999/xlink">
<g><path style="opacity:0.986" fill="#1e0478" d="M 232.5,-0.5 C 247.5,-0.5 262.5,-0.5 277.5,-0.5C 369.221,10.5928 437.721,56.2594 483,136.5C 498.419,166.864 507.919,198.864 511.5,232.5C 511.5,247.5 511.5,262.5 511.5,277.5C 500.406,370.223 454.073,439.056 372.5,484C 342.689,498.781 311.356,507.948 278.5,511.5C 263.5,511.5 248.5,511.5 233.5,511.5C 131.016,498.516 58.8491,444.85 17,350.5C 8.03051,327.125 2.19717,303.125 -0.5,278.5C -0.5,263.5 -0.5,248.5 -0.5,233.5C 12.4831,131.017 66.1498,58.8502 160.5,17C 183.875,8.03051 207.875,2.19717 232.5,-0.5 Z"/></g>
<g><path style="opacity:1" fill="#9a8bcb" d="M 232.5,26.5 C 312.035,21.6025 378.202,48.6025 431,107.5C 487.5,179.515 499.5,258.515 467,344.5C 431.132,422.674 370.632,468.841 285.5,483C 203.258,491.265 134.758,464.765 80,403.5C 30.7409,341.891 15.4075,272.558 34,195.5C 58.0677,115.766 109.568,62.5989 188.5,36C 203.069,31.7217 217.736,28.555 232.5,26.5 Z"/></g>
<g><path style="opacity:0.999" fill="#1f0578" d="M 275.5,58.5 C 333.779,64.5427 380.279,90.876 415,137.5C 415.9,152.936 409.067,158.102 394.5,153C 364.671,114.896 325.671,92.2289 277.5,85C 263.819,77.1189 263.152,68.2856 275.5,58.5 Z"/></g>
<g><path style="opacity:1" fill="#1f0578" d="M 193.5,132.5 C 201.298,131.783 208.631,133.283 215.5,137C 271.33,169.081 326.997,201.414 382.5,234C 395.765,248.302 395.765,262.636 382.5,277C 326.997,309.586 271.33,341.919 215.5,374C 199.911,381.975 186.745,379.142 176,365.5C 174.073,362.052 172.739,358.385 172,354.5C 171.333,288.5 171.333,222.5 172,156.5C 174.472,144.199 181.639,136.199 193.5,132.5 Z"/></g>
<g><path style="opacity:0.999" fill="#93e6ee" d="M 198.5,159.5 C 203.464,160.949 208.131,163.115 212.5,166C 263.652,195.669 314.652,225.503 365.5,255.5C 314.652,285.497 263.652,315.331 212.5,345C 208.131,347.885 203.464,350.051 198.5,351.5C 198.5,287.5 198.5,223.5 198.5,159.5 Z"/></g>
</svg>
